<?xml version="1.0" encoding="UTF-8" standalone="no"?>
<!-- Created with Inkscape (http://www.inkscape.org/) -->

<svg
   width="180.91415"
   height="180.22888"
   viewBox="0 0 47.866871 47.68556"
   version="1.1"
   id="svg1"
   inkscape:version="1.3 (0e150ed6c4, 2023-07-21)"
   sodipodi:docname="maioka.svg"
   xml:space="preserve"
   inkscape:export-filename="250704aniva.png"
   inkscape:export-xdpi="96"
   inkscape:export-ydpi="96"
   xmlns:inkscape="http://www.inkscape.org/namespaces/inkscape"
   xmlns:sodipodi="http://sodipodi.sourceforge.net/DTD/sodipodi-0.dtd"
   xmlns="http://www.w3.org/2000/svg"
   xmlns:svg="http://www.w3.org/2000/svg"><sodipodi:namedview
     id="namedview1"
     pagecolor="#ffffff"
     bordercolor="#000000"
     borderopacity="0.25"
     inkscape:showpageshadow="2"
     inkscape:pageopacity="0.0"
     inkscape:pagecheckerboard="0"
     inkscape:deskcolor="#d1d1d1"
     inkscape:document-units="mm"
     inkscape:zoom="0.4651751"
     inkscape:cx="234.32037"
     inkscape:cy="267.64115"
     inkscape:window-width="1366"
     inkscape:window-height="697"
     inkscape:window-x="-8"
     inkscape:window-y="-8"
     inkscape:window-maximized="1"
     inkscape:current-layer="layer4"
     showgrid="false"><inkscape:grid
       id="grid1"
       units="mm"
       originx="-241.67709"
       originy="6.625246e-06"
       spacingx="1"
       spacingy="1"
       empcolor="#0099e5"
       empopacity="0.30196078"
       color="#0099e5"
       opacity="0.14901961"
       empspacing="5"
       dotted="false"
       gridanglex="30"
       gridanglez="30"
       visible="false" /><inkscape:page
       x="0"
       y="0"
       width="47.866871"
       height="47.685558"
       id="page1"
       margin="0"
       bleed="0" /><inkscape:page
       x="-38.033863"
       y="210.58266"
       width="0"
       height="0"
       id="page3"
       margin="0"
       bleed="0" /></sodipodi:namedview><defs
     id="defs1"><rect
       x="552.60392"
       y="757.3404"
       width="26.549352"
       height="589.45698"
       id="rect2" /><inkscape:perspective
       sodipodi:type="inkscape:persp3d"
       inkscape:vp_x="25.724693 : -203.01391 : 1"
       inkscape:vp_y="0 : 1000.0001 : 0"
       inkscape:vp_z="311.4747 : -203.01391 : 1"
       inkscape:persp3d-origin="168.5997 : -250.63891 : 1"
       id="perspective12" /><clipPath
       clipPathUnits="userSpaceOnUse"
       id="clipPath210"><path
         d="M 0,1080 H 1080 V 0 H 0 Z"
         transform="translate(-719.45319,-734.06542)"
         id="path210" /></clipPath><clipPath
       clipPathUnits="userSpaceOnUse"
       id="clipPath212"><path
         d="M 0,1080 H 1080 V 0 H 0 Z"
         transform="translate(-518.26674,-644.53031)"
         id="path212" /></clipPath><clipPath
       clipPathUnits="userSpaceOnUse"
       id="clipPath214"><path
         d="M 0,1080 H 1080 V 0 H 0 Z"
         transform="translate(-562.75989,-747.11522)"
         id="path214" /></clipPath><clipPath
       clipPathUnits="userSpaceOnUse"
       id="clipPath216"><path
         d="M 0,1080 H 1080 V 0 H 0 Z"
         transform="translate(-502.07731,-464.68751)"
         id="path216" /></clipPath><clipPath
       clipPathUnits="userSpaceOnUse"
       id="clipPath218"><path
         d="M 0,1080 H 1080 V 0 H 0 Z"
         transform="translate(-581.96889,-577.43951)"
         id="path218" /></clipPath><clipPath
       clipPathUnits="userSpaceOnUse"
       id="clipPath220"><path
         d="M 0,1080 H 1080 V 0 H 0 Z"
         transform="translate(-514.99524,-649.85252)"
         id="path220" /></clipPath><clipPath
       clipPathUnits="userSpaceOnUse"
       id="clipPath222"><path
         d="M 0,1080 H 1080 V 0 H 0 Z"
         transform="translate(-575.19744,-603.47362)"
         id="path222" /></clipPath><clipPath
       clipPathUnits="userSpaceOnUse"
       id="clipPath224"><path
         d="M 0,1080 H 1080 V 0 H 0 Z"
         transform="translate(-586.83804,-576.88672)"
         id="path224" /></clipPath><clipPath
       clipPathUnits="userSpaceOnUse"
       id="clipPath226"><path
         d="M 0,1080 H 1080 V 0 H 0 Z"
         transform="translate(-362.58218,-277.02338)"
         id="path226" /></clipPath><clipPath
       clipPathUnits="userSpaceOnUse"
       id="clipPath228"><path
         d="M 0,1080 H 1080 V 0 H 0 Z"
         transform="translate(-427.65054,-306.93653)"
         id="path228" /></clipPath><clipPath
       clipPathUnits="userSpaceOnUse"
       id="clipPath230"><path
         d="M 0,1080 H 1080 V 0 H 0 Z"
         transform="translate(-627.01569,-306.93653)"
         id="path230" /></clipPath><clipPath
       clipPathUnits="userSpaceOnUse"
       id="clipPath232"><path
         d="M 0,1080 H 1080 V 0 H 0 Z"
         transform="translate(-760.80092,-290.63768)"
         id="path232" /></clipPath><clipPath
       clipPathUnits="userSpaceOnUse"
       id="clipPath234"><path
         d="M 0,1080 H 1080 V 0 H 0 Z"
         transform="translate(-698.18079,-309.94043)"
         id="path234" /></clipPath><clipPath
       clipPathUnits="userSpaceOnUse"
       id="clipPath236"><path
         d="M 0,1080 H 1080 V 0 H 0 Z"
         transform="translate(-684.70914,-315.21188)"
         id="path236" /></clipPath><clipPath
       clipPathUnits="userSpaceOnUse"
       id="clipPath238"><path
         d="M 0,1080 H 1080 V 0 H 0 Z"
         transform="translate(-733.58904,-323.88278)"
         id="path238" /></clipPath><clipPath
       clipPathUnits="userSpaceOnUse"
       id="clipPath240"><path
         d="M 0,1080 H 1080 V 0 H 0 Z"
         transform="translate(-692.95524,-355.55371)"
         id="path240" /></clipPath><clipPath
       clipPathUnits="userSpaceOnUse"
       id="clipPath242"><path
         d="M 0,1080 H 1080 V 0 H 0 Z"
         transform="translate(-716.71982,-339.33011)"
         id="path242" /></clipPath><clipPath
       clipPathUnits="userSpaceOnUse"
       id="clipPath244"><path
         d="M 0,1080 H 1080 V 0 H 0 Z"
         transform="translate(-728.28039,-339.33011)"
         id="path244" /></clipPath><clipPath
       clipPathUnits="userSpaceOnUse"
       id="clipPath246"><path
         d="M 0,1080 H 1080 V 0 H 0 Z"
         transform="translate(-728.17404,-329.32808)"
         id="path246" /></clipPath><clipPath
       clipPathUnits="userSpaceOnUse"
       id="clipPath248"><path
         d="M 0,1080 H 1080 V 0 H 0 Z"
         transform="translate(-564.88981,-302.68748)"
         id="path248" /></clipPath><clipPath
       clipPathUnits="userSpaceOnUse"
       id="clipPath250"><path
         d="M 0,1080 H 1080 V 0 H 0 Z"
         transform="translate(-543.21984,-322.51073)"
         id="path250" /></clipPath><clipPath
       clipPathUnits="userSpaceOnUse"
       id="clipPath252"><path
         d="M 0,1080 H 1080 V 0 H 0 Z"
         transform="translate(-556.80969,-323.00393)"
         id="path252" /></clipPath><clipPath
       clipPathUnits="userSpaceOnUse"
       id="clipPath254"><path
         d="M 0,1080 H 1080 V 0 H 0 Z"
         transform="translate(-558.58614,-330.25881)"
         id="path254" /></clipPath><clipPath
       clipPathUnits="userSpaceOnUse"
       id="clipPath256"><path
         d="M 0,1080 H 1080 V 0 H 0 Z"
         transform="translate(-568.66711,-304.94528)"
         id="path256" /></clipPath><clipPath
       clipPathUnits="userSpaceOnUse"
       id="clipPath258"><path
         d="M 0,1080 H 1080 V 0 H 0 Z"
         transform="translate(-622.61154,-673.47562)"
         id="path258" /></clipPath><clipPath
       clipPathUnits="userSpaceOnUse"
       id="clipPath260"><path
         d="M 0,1080 H 1080 V 0 H 0 Z"
         transform="translate(-644.87814,-648.62111)"
         id="path260" /></clipPath><clipPath
       clipPathUnits="userSpaceOnUse"
       id="clipPath262"><path
         d="M 0,1080 H 1080 V 0 H 0 Z"
         transform="translate(-622.61154,-673.47562)"
         id="path262" /></clipPath><clipPath
       clipPathUnits="userSpaceOnUse"
       id="clipPath264"><path
         d="M 0,1080 H 1080 V 0 H 0 Z"
         transform="translate(-644.87814,-648.62111)"
         id="path264" /></clipPath><clipPath
       clipPathUnits="userSpaceOnUse"
       id="clipPath266"><path
         d="M 0,1080 H 1080 V 0 H 0 Z"
         transform="translate(-622.36239,-672.67481)"
         id="path266" /></clipPath><clipPath
       clipPathUnits="userSpaceOnUse"
       id="clipPath268"><path
         d="M 0,1080 H 1080 V 0 H 0 Z"
         transform="translate(-625.85462,-635.63182)"
         id="path268" /></clipPath><clipPath
       clipPathUnits="userSpaceOnUse"
       id="clipPath270"><path
         d="M 0,1080 H 1080 V 0 H 0 Z"
         transform="translate(-366.53918,-241.05083)"
         id="path270" /></clipPath><clipPath
       clipPathUnits="userSpaceOnUse"
       id="clipPath272"><path
         d="M 0,1080 H 1080 V 0 H 0 Z"
         transform="translate(-389.82338,-235.22461)"
         id="path272" /></clipPath><clipPath
       clipPathUnits="userSpaceOnUse"
       id="clipPath274"><path
         d="M 0,1080 H 1080 V 0 H 0 Z"
         transform="translate(-416.58024,-239.83688)"
         id="path274" /></clipPath><clipPath
       clipPathUnits="userSpaceOnUse"
       id="clipPath276"><path
         d="M 0,1080 H 1080 V 0 H 0 Z"
         transform="translate(-436.41811,-238.62301)"
         id="path276" /></clipPath><clipPath
       clipPathUnits="userSpaceOnUse"
       id="clipPath278"><path
         d="M 0,1080 H 1080 V 0 H 0 Z"
         transform="translate(-461.08704,-229.83503)"
         id="path278" /></clipPath><clipPath
       clipPathUnits="userSpaceOnUse"
       id="clipPath280"><path
         d="M 0,1080 H 1080 V 0 H 0 Z"
         transform="translate(-475.48651,-237.53033)"
         id="path280" /></clipPath><clipPath
       clipPathUnits="userSpaceOnUse"
       id="clipPath282"><path
         d="M 0,1080 H 1080 V 0 H 0 Z"
         transform="translate(-513.70134,-239.83688)"
         id="path282" /></clipPath><clipPath
       clipPathUnits="userSpaceOnUse"
       id="clipPath284"><path
         d="M 0,1080 H 1080 V 0 H 0 Z"
         transform="translate(-532.25214,-225.24713)"
         id="path284" /></clipPath><clipPath
       clipPathUnits="userSpaceOnUse"
       id="clipPath286"><path
         d="M 0,1080 H 1080 V 0 H 0 Z"
         transform="translate(-586.46889,-220.12403)"
         id="path286" /></clipPath><clipPath
       clipPathUnits="userSpaceOnUse"
       id="clipPath288"><path
         d="M 0,1080 H 1080 V 0 H 0 Z"
         transform="translate(-602.27754,-238.55078)"
         id="path288" /></clipPath><clipPath
       clipPathUnits="userSpaceOnUse"
       id="clipPath290"><path
         d="M 0,1080 H 1080 V 0 H 0 Z"
         transform="translate(-635.56359,-240.03121)"
         id="path290" /></clipPath><clipPath
       clipPathUnits="userSpaceOnUse"
       id="clipPath292"><path
         d="M 0,1080 H 1080 V 0 H 0 Z"
         transform="translate(-682.61934,-220.41601)"
         id="path292" /></clipPath><clipPath
       clipPathUnits="userSpaceOnUse"
       id="clipPath294"><path
         d="M 0,1080 H 1080 V 0 H 0 Z"
         transform="translate(-706.89954,-220.41601)"
         id="path294" /></clipPath><clipPath
       clipPathUnits="userSpaceOnUse"
       id="clipPath296"><path
         d="M 0,1080 H 1080 V 0 H 0 Z"
         transform="translate(-729.21302,-220.63381)"
         id="path296" /></clipPath><clipPath
       clipPathUnits="userSpaceOnUse"
       id="clipPath210-8"><path
         d="M 0,1080 H 1080 V 0 H 0 Z"
         transform="translate(-719.45319,-734.06542)"
         id="path210-7" /></clipPath><clipPath
       clipPathUnits="userSpaceOnUse"
       id="clipPath212-5"><path
         d="M 0,1080 H 1080 V 0 H 0 Z"
         transform="translate(-518.26674,-644.53031)"
         id="path212-7" /></clipPath><clipPath
       clipPathUnits="userSpaceOnUse"
       id="clipPath214-1"><path
         d="M 0,1080 H 1080 V 0 H 0 Z"
         transform="translate(-562.75989,-747.11522)"
         id="path214-8" /></clipPath><clipPath
       clipPathUnits="userSpaceOnUse"
       id="clipPath216-6"><path
         d="M 0,1080 H 1080 V 0 H 0 Z"
         transform="translate(-502.07731,-464.68751)"
         id="path216-7" /></clipPath><clipPath
       clipPathUnits="userSpaceOnUse"
       id="clipPath218-3"><path
         d="M 0,1080 H 1080 V 0 H 0 Z"
         transform="translate(-581.96889,-577.43951)"
         id="path218-7" /></clipPath><clipPath
       clipPathUnits="userSpaceOnUse"
       id="clipPath220-5"><path
         d="M 0,1080 H 1080 V 0 H 0 Z"
         transform="translate(-514.99524,-649.85252)"
         id="path220-9" /></clipPath><clipPath
       clipPathUnits="userSpaceOnUse"
       id="clipPath222-1"><path
         d="M 0,1080 H 1080 V 0 H 0 Z"
         transform="translate(-575.19744,-603.47362)"
         id="path222-1" /></clipPath><clipPath
       clipPathUnits="userSpaceOnUse"
       id="clipPath224-3"><path
         d="M 0,1080 H 1080 V 0 H 0 Z"
         transform="translate(-586.83804,-576.88672)"
         id="path224-1" /></clipPath><clipPath
       clipPathUnits="userSpaceOnUse"
       id="clipPath226-0"><path
         d="M 0,1080 H 1080 V 0 H 0 Z"
         transform="translate(-362.58218,-277.02338)"
         id="path226-1" /></clipPath><clipPath
       clipPathUnits="userSpaceOnUse"
       id="clipPath228-7"><path
         d="M 0,1080 H 1080 V 0 H 0 Z"
         transform="translate(-427.65054,-306.93653)"
         id="path228-1" /></clipPath><clipPath
       clipPathUnits="userSpaceOnUse"
       id="clipPath230-7"><path
         d="M 0,1080 H 1080 V 0 H 0 Z"
         transform="translate(-627.01569,-306.93653)"
         id="path230-2" /></clipPath><clipPath
       clipPathUnits="userSpaceOnUse"
       id="clipPath232-8"><path
         d="M 0,1080 H 1080 V 0 H 0 Z"
         transform="translate(-760.80092,-290.63768)"
         id="path232-1" /></clipPath><clipPath
       clipPathUnits="userSpaceOnUse"
       id="clipPath234-1"><path
         d="M 0,1080 H 1080 V 0 H 0 Z"
         transform="translate(-698.18079,-309.94043)"
         id="path234-3" /></clipPath><clipPath
       clipPathUnits="userSpaceOnUse"
       id="clipPath236-8"><path
         d="M 0,1080 H 1080 V 0 H 0 Z"
         transform="translate(-684.70914,-315.21188)"
         id="path236-7" /></clipPath><clipPath
       clipPathUnits="userSpaceOnUse"
       id="clipPath238-7"><path
         d="M 0,1080 H 1080 V 0 H 0 Z"
         transform="translate(-733.58904,-323.88278)"
         id="path238-3" /></clipPath><clipPath
       clipPathUnits="userSpaceOnUse"
       id="clipPath240-1"><path
         d="M 0,1080 H 1080 V 0 H 0 Z"
         transform="translate(-692.95524,-355.55371)"
         id="path240-0" /></clipPath><clipPath
       clipPathUnits="userSpaceOnUse"
       id="clipPath242-6"><path
         d="M 0,1080 H 1080 V 0 H 0 Z"
         transform="translate(-716.71982,-339.33011)"
         id="path242-2" /></clipPath><clipPath
       clipPathUnits="userSpaceOnUse"
       id="clipPath244-1"><path
         d="M 0,1080 H 1080 V 0 H 0 Z"
         transform="translate(-728.28039,-339.33011)"
         id="path244-9" /></clipPath><clipPath
       clipPathUnits="userSpaceOnUse"
       id="clipPath246-3"><path
         d="M 0,1080 H 1080 V 0 H 0 Z"
         transform="translate(-728.17404,-329.32808)"
         id="path246-8" /></clipPath><clipPath
       clipPathUnits="userSpaceOnUse"
       id="clipPath248-7"><path
         d="M 0,1080 H 1080 V 0 H 0 Z"
         transform="translate(-564.88981,-302.68748)"
         id="path248-6" /></clipPath><clipPath
       clipPathUnits="userSpaceOnUse"
       id="clipPath250-0"><path
         d="M 0,1080 H 1080 V 0 H 0 Z"
         transform="translate(-543.21984,-322.51073)"
         id="path250-2" /></clipPath><clipPath
       clipPathUnits="userSpaceOnUse"
       id="clipPath252-4"><path
         d="M 0,1080 H 1080 V 0 H 0 Z"
         transform="translate(-556.80969,-323.00393)"
         id="path252-0" /></clipPath><clipPath
       clipPathUnits="userSpaceOnUse"
       id="clipPath254-3"><path
         d="M 0,1080 H 1080 V 0 H 0 Z"
         transform="translate(-558.58614,-330.25881)"
         id="path254-4" /></clipPath><clipPath
       clipPathUnits="userSpaceOnUse"
       id="clipPath256-3"><path
         d="M 0,1080 H 1080 V 0 H 0 Z"
         transform="translate(-568.66711,-304.94528)"
         id="path256-8" /></clipPath><clipPath
       clipPathUnits="userSpaceOnUse"
       id="clipPath258-4"><path
         d="M 0,1080 H 1080 V 0 H 0 Z"
         transform="translate(-622.61154,-673.47562)"
         id="path258-5" /></clipPath><clipPath
       clipPathUnits="userSpaceOnUse"
       id="clipPath260-4"><path
         d="M 0,1080 H 1080 V 0 H 0 Z"
         transform="translate(-644.87814,-648.62111)"
         id="path260-9" /></clipPath><clipPath
       clipPathUnits="userSpaceOnUse"
       id="clipPath262-6"><path
         d="M 0,1080 H 1080 V 0 H 0 Z"
         transform="translate(-622.61154,-673.47562)"
         id="path262-7" /></clipPath><clipPath
       clipPathUnits="userSpaceOnUse"
       id="clipPath264-9"><path
         d="M 0,1080 H 1080 V 0 H 0 Z"
         transform="translate(-644.87814,-648.62111)"
         id="path264-2" /></clipPath><clipPath
       clipPathUnits="userSpaceOnUse"
       id="clipPath266-5"><path
         d="M 0,1080 H 1080 V 0 H 0 Z"
         transform="translate(-622.36239,-672.67481)"
         id="path266-1" /></clipPath><clipPath
       clipPathUnits="userSpaceOnUse"
       id="clipPath268-9"><path
         d="M 0,1080 H 1080 V 0 H 0 Z"
         transform="translate(-625.85462,-635.63182)"
         id="path268-8" /></clipPath><clipPath
       clipPathUnits="userSpaceOnUse"
       id="clipPath270-5"><path
         d="M 0,1080 H 1080 V 0 H 0 Z"
         transform="translate(-366.53918,-241.05083)"
         id="path270-9" /></clipPath><clipPath
       clipPathUnits="userSpaceOnUse"
       id="clipPath272-4"><path
         d="M 0,1080 H 1080 V 0 H 0 Z"
         transform="translate(-389.82338,-235.22461)"
         id="path272-6" /></clipPath><clipPath
       clipPathUnits="userSpaceOnUse"
       id="clipPath274-8"><path
         d="M 0,1080 H 1080 V 0 H 0 Z"
         transform="translate(-416.58024,-239.83688)"
         id="path274-6" /></clipPath><clipPath
       clipPathUnits="userSpaceOnUse"
       id="clipPath276-4"><path
         d="M 0,1080 H 1080 V 0 H 0 Z"
         transform="translate(-436.41811,-238.62301)"
         id="path276-8" /></clipPath><clipPath
       clipPathUnits="userSpaceOnUse"
       id="clipPath278-0"><path
         d="M 0,1080 H 1080 V 0 H 0 Z"
         transform="translate(-461.08704,-229.83503)"
         id="path278-9" /></clipPath><clipPath
       clipPathUnits="userSpaceOnUse"
       id="clipPath280-1"><path
         d="M 0,1080 H 1080 V 0 H 0 Z"
         transform="translate(-475.48651,-237.53033)"
         id="path280-9" /></clipPath><clipPath
       clipPathUnits="userSpaceOnUse"
       id="clipPath282-8"><path
         d="M 0,1080 H 1080 V 0 H 0 Z"
         transform="translate(-513.70134,-239.83688)"
         id="path282-8" /></clipPath><clipPath
       clipPathUnits="userSpaceOnUse"
       id="clipPath284-7"><path
         d="M 0,1080 H 1080 V 0 H 0 Z"
         transform="translate(-532.25214,-225.24713)"
         id="path284-7" /></clipPath><clipPath
       clipPathUnits="userSpaceOnUse"
       id="clipPath286-2"><path
         d="M 0,1080 H 1080 V 0 H 0 Z"
         transform="translate(-586.46889,-220.12403)"
         id="path286-7" /></clipPath><clipPath
       clipPathUnits="userSpaceOnUse"
       id="clipPath288-5"><path
         d="M 0,1080 H 1080 V 0 H 0 Z"
         transform="translate(-602.27754,-238.55078)"
         id="path288-4" /></clipPath><clipPath
       clipPathUnits="userSpaceOnUse"
       id="clipPath290-7"><path
         d="M 0,1080 H 1080 V 0 H 0 Z"
         transform="translate(-635.56359,-240.03121)"
         id="path290-6" /></clipPath><clipPath
       clipPathUnits="userSpaceOnUse"
       id="clipPath292-3"><path
         d="M 0,1080 H 1080 V 0 H 0 Z"
         transform="translate(-682.61934,-220.41601)"
         id="path292-7" /></clipPath><clipPath
       clipPathUnits="userSpaceOnUse"
       id="clipPath294-4"><path
         d="M 0,1080 H 1080 V 0 H 0 Z"
         transform="translate(-706.89954,-220.41601)"
         id="path294-8" /></clipPath><clipPath
       clipPathUnits="userSpaceOnUse"
       id="clipPath296-0"><path
         d="M 0,1080 H 1080 V 0 H 0 Z"
         transform="translate(-729.21302,-220.63381)"
         id="path296-3" /></clipPath></defs><g
     inkscape:groupmode="layer"
     id="layer4"
     inkscape:label="教室"
     transform="translate(-49.401487,-294.48041)"
     style="display:inline"><ellipse
       style="opacity:0.829;fill:#3b82c4;fill-opacity:1;stroke:#00ffff;stroke-width:0.146962;stroke-linecap:round;stroke-linejoin:bevel;stroke-opacity:0.984314;paint-order:stroke fill markers"
       id="path2"
       cx="171.67784"
       cy="471.01727"
       rx="23.859953"
       ry="23.769304" /><ellipse
       style="display:inline;opacity:0.829;fill:#f5a500;fill-opacity:0.984314;stroke:#00ffff;stroke-width:0.146962;stroke-linecap:round;stroke-linejoin:bevel;stroke-opacity:0.984314;paint-order:stroke fill markers"
       id="path2-31"
       cx="73.334923"
       cy="318.32318"
       rx="23.859953"
       ry="23.769304" /><text
       xml:space="preserve"
       style="font-size:6.04931px;line-height:1.5;font-family:'BIZ UDPGothic';-inkscape-font-specification:'BIZ UDPGothic, Normal';opacity:1;fill:#3b82c4;fill-opacity:0.831373;stroke:#ffffff;stroke-width:0.514368;stroke-linecap:round;stroke-linejoin:bevel;stroke-dasharray:none;stroke-opacity:0.984314;paint-order:stroke fill markers"
       x="64.415169"
       y="315.948"
       id="text9"
       transform="scale(0.98179631,1.0185412)"><tspan
         sodipodi:role="line"
         id="tspan9"
         style="fill:#3b82c4;fill-opacity:0.831373;stroke:#ffffff;stroke-width:0.514368;stroke-dasharray:none;stroke-opacity:0.984314"
         x="64.415169"
         y="315.948">舞岡教室</tspan></text><text
       xml:space="preserve"
       style="font-style:normal;font-variant:normal;font-weight:normal;font-stretch:normal;font-size:6.04931px;line-height:1.5;font-family:'BIZ UDPGothic';-inkscape-font-specification:'BIZ UDPGothic, Normal';font-variant-ligatures:normal;font-variant-caps:normal;font-variant-numeric:normal;font-variant-east-asian:normal;display:inline;fill:#92cb98;fill-opacity:0.831373;stroke:#f5a600;stroke-width:0.514368;stroke-linecap:round;stroke-linejoin:bevel;stroke-dasharray:none;stroke-opacity:0.819608;paint-order:stroke fill markers"
       x="163.27789"
       y="462.96625"
       id="text9-0"
       transform="scale(0.98179631,1.0185412)"><tspan
         sodipodi:role="line"
         id="tspan11"
         x="163.27789"
         y="462.96625"
         style="stroke-width:0.514368">戸塚教室</tspan><tspan
         sodipodi:role="line"
         id="tspan12"
         x="163.27789"
         y="472.04022"
         style="stroke-width:0.514368" /></text><text
       xml:space="preserve"
       style="font-size:6.86578px;line-height:1.5;font-family:'BIZ UDPGothic';-inkscape-font-specification:'BIZ UDPGothic, Normal';opacity:1;fill:#3b82c4;fill-opacity:0.831373;stroke:#f5a600;stroke-width:2.04353;stroke-linecap:round;stroke-linejoin:bevel;stroke-dasharray:none;stroke-opacity:0.819608;paint-order:stroke fill markers"
       x="163.68205"
       y="480.77411"
       id="text10"
       transform="scale(0.98179631,1.0185412)"><tspan
         sodipodi:role="line"
         id="tspan10"
         style="fill:#3b82c4;fill-opacity:0.831373;stroke-width:2.04353"
         x="163.68205"
         y="480.77411">Zoom</tspan></text><text
       xml:space="preserve"
       transform="matrix(0.26458333,0,0,0.26458333,49.401487,294.48041)"
       id="text2"
       style="fill:#808000;-inkscape-font-specification:'BIZ UDPGothic, Normal';font-family:'BIZ UDPGothic';font-size:46.67224884px;stroke-linejoin:bevel;stroke-linecap:round;stroke-width:3.96850394;line-height:1.5;paint-order:stroke fill markers;stroke-opacity:0.81960785;stroke:#f5a600;white-space:pre;shape-inside:url(#rect2)" /></g></svg>
